name rise44.8762peak52.3436fall86.788.mot
datacolumns 19
datarows 11
range 7.24664200000000 7.26330600000000
endheader
time	ground_force1_vx	ground_force1_vy	ground_force1_vz	ground_force1_px	ground_force1_py	ground_force1_pz	ground_force2_vx	ground_force2_vy	ground_force2_vz	ground_force2_px	ground_force2_py	ground_force2_pz	ground_torque1_x	ground_torque1_y	ground_torque1_z	ground_torque2_x	ground_torque2_y	ground_torque2_z	
7.24664200000000	-33.81954800000000	750.84117200000003	48.41866100000000	0.08000600000000	0.00000000000000	0.07994400000000	-6.36841600000000	53.99802900000000	-0.92696400000000	0.28982500000000	0.00000000000000	-0.11866400000000	0.00000000000000	15.23020300000000	0.00000000000000	0.00000000000000	-2.32089800000000	0.00000000000000	
7.24830100000000	-34.08865400000000	749.08860400000003	48.11119200000000	0.07950300000000	0.00000000000000	0.07982100000000	-6.72375500000000	60.73800300000000	-1.05708200000000	0.29442100000000	0.00000000000000	-0.11875700000000	0.00000000000000	15.13263100000000	0.00000000000000	0.00000000000000	-2.49903200000000	0.00000000000000	
7.24997100000000	-34.36237000000000	747.26755900000001	47.78937000000000	0.07901700000000	0.00000000000000	0.07969500000000	-6.96210800000000	67.34894000000000	-1.18964000000000	0.29861100000000	0.00000000000000	-0.11883900000000	0.00000000000000	15.03474700000000	0.00000000000000	0.00000000000000	-2.64628300000000	0.00000000000000	
7.25163800000000	-34.64110800000000	745.37685599999998	47.45324300000000	0.07854700000000	0.00000000000000	0.07956500000000	-7.07950200000000	73.78715699999999	-1.32437100000000	0.30244300000000	0.00000000000000	-0.11891200000000	0.00000000000000	14.93665100000000	0.00000000000000	0.00000000000000	-2.76140500000000	0.00000000000000	
7.25330000000000	-34.92528100000000	743.41527499999995	47.10287300000000	0.07809400000000	0.00000000000000	0.07943100000000	-7.07702600000000	80.03398700000000	-1.46141200000000	0.30595500000000	0.00000000000000	-0.11897800000000	0.00000000000000	14.83844300000000	0.00000000000000	0.00000000000000	-2.84483900000000	0.00000000000000	
7.25496900000000	-35.21529800000000	741.38155300000005	46.73834100000000	0.07765700000000	0.00000000000000	0.07929300000000	-6.96001900000000	86.09335400000001	-1.60126400000000	0.30918300000000	0.00000000000000	-0.11903800000000	0.00000000000000	14.74022000000000	0.00000000000000	0.00000000000000	-2.89845500000000	0.00000000000000	
7.25664100000000	-35.51156600000000	739.27438500000005	46.35974500000000	0.07723500000000	0.00000000000000	0.07915200000000	-6.73705800000000	91.98790400000000	-1.74473000000000	0.31215300000000	0.00000000000000	-0.11909400000000	0.00000000000000	14.64207500000000	0.00000000000000	0.00000000000000	-2.92523200000000	0.00000000000000	
7.25830400000000	-35.81448100000000	737.09242300000005	45.96720200000000	0.07682800000000	0.00000000000000	0.07900600000000	-6.41885100000000	97.75427700000000	-1.89284200000000	0.31489000000000	0.00000000000000	-0.11914700000000	0.00000000000000	14.54410200000000	0.00000000000000	0.00000000000000	-2.92889500000000	0.00000000000000	
7.25996900000000	-36.12443200000000	734.83427099999994	45.56084400000000	0.07643500000000	0.00000000000000	0.07885700000000	-6.01715000000000	103.43805300000000	-2.04677700000000	0.31741500000000	0.00000000000000	-0.11919700000000	0.00000000000000	14.44638900000000	0.00000000000000	0.00000000000000	-2.91356000000000	0.00000000000000	
7.26164100000000	-36.44179100000000	732.49848999999995	45.14082400000000	0.07605500000000	0.00000000000000	0.07870500000000	-5.54377300000000	109.08884000000000	-2.20778300000000	0.31974600000000	0.00000000000000	-0.11924600000000	0.00000000000000	14.34902200000000	0.00000000000000	0.00000000000000	-2.88340100000000	0.00000000000000	
7.26330600000000	-36.76691500000000	730.08358899999996	44.70731000000000	0.07568700000000	0.00000000000000	0.07854800000000	-5.00978700000000	114.75587700000000	-2.37710200000000	0.32189800000000	0.00000000000000	-0.11929300000000	0.00000000000000	14.25208600000000	0.00000000000000	0.00000000000000	-2.84237900000000	0.00000000000000	
